-
      the fast  and The Hottest Private Tracker on the net

Please Seed back to make the speed Faster!!
 ............ NFO .............
-[IMG]http://i.imgur.com/wjrmebg.jpg[/IMG]

Source: NTSC.DVDR-0MNiDVD
 
http://www.imdb.com/title/tt1520498/

The Oogieloves -- Goobie, Zoozie and Toofie -- set out to find five magical balloons that will make their good friend Schluufy's surprise birthday party extra-special.

General
Complete name                            : The Oogieloves in the Big Balloon Adventure 2012 DVDRip x264 AAC-OFFLiNE.mp4
Format                                   : MPEG-4
Format profile                           : Base Media
Codec ID                                 : isom
File size                                : 1.43 GiB
Duration                                 : 1h 27mn
Overall bit rate mode                    : Variable
Overall bit rate                         : 2 344 Kbps
Encoded date                             : UTC 2013-03-16 22:44:25
Tagged date                              : UTC 2013-03-16 22:44:25

Video
ID                                       : 1
Format                                   : AVC
Format/Info                              : Advanced Video Codec
Format profile                           : High@L4.1
Format settings, CABAC                   : Yes
Format settings, ReFrames                : 3 frames
Codec ID                                 : avc1
Codec ID/Info                            : Advanced Video Coding
Duration                                 : 1h 27mn
Bit rate mode                            : Variable
Bit rate                                 : 2 000 Kbps
Maximum bit rate                         : 40.0 Mbps
Width                                    : 720 pixels
Height                                   : 400 pixels
Display aspect ratio                     : 16:9
Frame rate mode                          : Constant
Frame rate                               : 23.976 fps
Color space                              : YUV
Chroma subsampling                       : 4:2:0
Bit depth                                : 8 bits
Scan type                                : Progressive
Bits/(Pixel*Frame)                       : 0.290
Stream size                              : 1.22 GiB (85%)
Writing library                          : x264 core 130 r2273 b3065e6

Audio
ID                                       : 2
Format                                   : AAC
Format/Info                              : Advanced Audio Codec
Format profile                           : LC
Codec ID                                 : 40
Duration                                 : 1h 27mn
Bit rate mode                            : Variable
Bit rate                                 : 340 Kbps
Maximum bit rate                         : 389 Kbps
Channel(s)                               : 6 channels
Channel positions                        : Front: L C R, Side: L R, LFE
Sampling rate                            : 48.0 KHz
Compression mode                         : Lossy
Stream size                              : 213 MiB (15%)
Language                                 : English
Encoded date                             : UTC 2013-03-16 20:31:15
Tagged date                              : UTC 2013-03-16 22:44:59

[IMG]http://i.imgur.com/etYwq1j.png[/IMG]
[IMG]http://i.imgur.com/n1HxThN.png[/IMG]
[IMG]http://i.imgur.com/0mN75Iz.png[/IMG]
[IMG]http://i.imgur.com/zgXQ9Da.png[/IMG]

Greets: To Our Friends